<svg xmlns="http://www.w3.org/2000/svg" fill-rule="evenodd" clip-rule="evenodd">

    <symbol id="icon-close" viewBox="0 0 32 32">
        <g clip-path="">
            <path fill-rule="evenodd" clip-rule="evenodd" d="M31.6985 3.41412L3.41424 31.6984L0.585815 28.87L28.8701 0.585693L31.6985 3.41412Z" fill=""/>
            <path fill-rule="evenodd" clip-rule="evenodd" d="M28.8701 31.6984L0.585815 3.41412L3.41424 0.585693L31.6985 28.87L28.8701 31.6984Z" fill=""/>
        </g>
        <defs>
            <clipPath id="clip0_134_33">
                <rect width="32" height="32" fill=""/>
            </clipPath>
        </defs>
    </symbol>

    <symbol id="icon-arrow" viewBox="0 0 19 40">
        <path d="M11 11.8999H7V33.0999H6.9L4 25.5999L0 25.6999L5.2 39.0999H11V11.8999Z" fill=""/>
        <path d="M14.2 25.6L11.2 33.1H11.1V0H7.20001V39.1H13L18.2 25.7L14.2 25.6Z" fill=""/>
    </symbol>

    <symbol id="chip" viewBox="0 0 394 154">
        <path d="M7.42096 10.9941C8.78713 10.9941 9.89462 9.88659 9.89462 8.52042C9.89462 7.15425 8.78713 6.04675 7.42096 6.04675C6.05479 6.04675 4.9473 7.15425 4.9473 8.52042C4.9473 9.88659 6.05479 10.9941 7.42096 10.9941Z" fill="#A2BDD4"/>
        <path d="M307.009 22.5378C308.375 22.5378 309.483 21.4303 309.483 20.0641C309.483 18.698 308.375 17.5905 307.009 17.5905C305.643 17.5905 304.535 18.698 304.535 20.0641C304.535 21.4303 305.643 22.5378 307.009 22.5378Z" fill="#A2BDD4"/>
        <path d="M230.38 89.6566H187.778L159.579 61.4568H59.8626L8.24551 9.8397L8.74025 9.34497L60.1375 60.7972H159.854L188.053 88.9969H230.106L239.121 79.9818H404.526V80.6414H239.396L230.38 89.6566Z" fill="#A2BDD4"/>
        <path d="M210.646 121.1C209.107 121.1 207.843 119.835 207.843 118.296C207.843 116.757 209.107 115.493 210.646 115.493C212.185 115.493 213.449 116.757 213.449 118.296C213.449 119.835 212.185 121.1 210.646 121.1ZM210.646 116.152C209.492 116.152 208.502 117.087 208.502 118.296C208.502 119.451 209.437 120.44 210.646 120.44C211.8 120.44 212.79 119.506 212.79 118.296C212.79 117.087 211.8 116.152 210.646 116.152Z" fill="#A2BDD4"/>
        <path d="M7.42096 129.895C8.78713 129.895 9.89462 128.787 9.89462 127.421C9.89462 126.055 8.78713 124.948 7.42096 124.948C6.05479 124.948 4.9473 126.055 4.9473 127.421C4.9473 128.787 6.05479 129.895 7.42096 129.895Z" fill="#A2BDD4"/>
        <path d="M7.69582 127.641L7.20111 127.146L33.7518 100.596H114.063L131.489 118.076H208.172V118.736H131.214L113.788 101.31H34.0266L7.69582 127.641Z" fill="#A2BDD4"/>
        <path d="M157.985 98.2319H275.511L327.293 46.3949L326.853 45.9001L275.236 97.5172H158.26L129.565 68.8228H9.83972V69.4824H129.29L157.985 98.2319Z" fill="#D5E4EC"/>
        <path d="M155.126 102.52H277.05L327.293 52.2217L326.853 51.782L276.775 101.86H155.401L126.267 72.6707H5.27713V73.3303H125.937L155.126 102.52Z" fill="#D5E4EC"/>
        <path d="M159.799 93.7793H274.137L327.293 40.623L326.853 40.1283L273.862 93.1196H160.073L109.391 42.437L108.896 42.9318L159.799 93.7793Z" fill="#D5E4EC"/>
        <path d="M35.016 130.17H116.482L132.808 113.843H327.073V113.184H132.533L116.207 129.51H35.016V130.17Z" fill="#D5E4EC"/>
        <path d="M327.073 108.676H73.8801V109.336H327.073V108.676Z" fill="#D5E4EC"/>
        <path d="M68.603 109.006C68.603 107.467 69.8673 106.203 71.4064 106.203C72.9456 106.203 74.2099 107.467 74.2099 109.006C74.2099 110.545 72.9456 111.809 71.4064 111.809C69.8673 111.809 68.603 110.545 68.603 109.006ZM69.3176 109.006C69.3176 110.16 70.252 111.15 71.4614 111.15C72.6158 111.15 73.6052 110.215 73.6052 109.006C73.6052 107.852 72.6707 106.862 71.4614 106.862C70.252 106.862 69.3176 107.797 69.3176 109.006Z" fill="#D5E4EC"/>
        <path d="M0 73.1654C0 71.6263 1.26432 70.3619 2.80349 70.3619C4.34266 70.3619 5.60696 71.6263 5.60696 73.1654C5.60696 74.7046 4.34266 75.9689 2.80349 75.9689C1.26432 75.9689 0 74.7046 0 73.1654ZM0.659633 73.1654C0.659633 74.3198 1.59414 75.3093 2.80349 75.3093C3.95786 75.3093 4.94733 74.3748 4.94733 73.1654C4.94733 72.011 4.01283 71.0216 2.80349 71.0216C1.64911 71.0216 0.659633 72.011 0.659633 73.1654Z" fill="#D5E4EC"/>
        <path d="M9.83966 71.4063C11.2058 71.4063 12.3133 70.2988 12.3133 68.9326C12.3133 67.5665 11.2058 66.459 9.83966 66.459C8.47349 66.459 7.366 67.5665 7.366 68.9326C7.366 70.2988 8.47349 71.4063 9.83966 71.4063Z" fill="#D5E4EC"/>
        <path d="M35.016 132.313C36.3822 132.313 37.4897 131.206 37.4897 129.84C37.4897 128.474 36.3822 127.366 35.016 127.366C33.6499 127.366 32.5424 128.474 32.5424 129.84C32.5424 131.206 33.6499 132.313 35.016 132.313Z" fill="#D5E4EC"/>
        <path d="M109.116 45.3505C110.482 45.3505 111.59 44.243 111.59 42.8769C111.59 41.5107 110.482 40.4032 109.116 40.4032C107.75 40.4032 106.642 41.5107 106.642 42.8769C106.642 44.243 107.75 45.3505 109.116 45.3505Z" fill="#D5E4EC"/>
        <path d="M132.698 151.443H90.4261V150.783H132.423L152.927 130.28H245.277V130.939H153.202L132.698 151.443Z" fill="#A2BDD4"/>
        <path d="M90.4261 153.587C91.7923 153.587 92.8998 152.479 92.8998 151.113C92.8998 149.747 91.7923 148.64 90.4261 148.64C89.06 148.64 87.9525 149.747 87.9525 151.113C87.9525 152.479 89.06 153.587 90.4261 153.587Z" fill="#A2BDD4"/>
        <path d="M247.091 133.028C248.458 133.028 249.565 131.921 249.565 130.554C249.565 129.188 248.458 128.081 247.091 128.081C245.725 128.081 244.618 129.188 244.618 130.554C244.618 131.921 245.725 133.028 247.091 133.028Z" fill="#A2BDD4"/>
        <mask id="mask0_1_2320" style="mask-type:alpha" maskUnits="userSpaceOnUse" x="139" y="0" width="179" height="97">
            <rect x="139.625" width="177.554" height="96.198" fill="#C4C4C4"/>
        </mask>
        <g mask="url(#mask0_1_2320)">
            <path d="M85.094 100.101H127.696L155.896 71.9011H255.612L307.229 20.284L306.734 19.7893L255.337 71.2415H155.621L127.421 99.4412H85.3689L76.3538 90.4261H-89.0518V91.0858H76.0789L85.094 100.101Z" fill="#A2BDD4"/>
        </g>
    </symbol>

    <symbol id="letter-m" viewBox="0 0 310 100">
        <path fill-rule="evenodd" clip-rule="evenodd" d="M0.82251 0.628784H29.5513L147.61 47.2112H158.41L280.493 0.628784H309.16V99.6558H288.16V21.6288H284.363L162.28 68.2112H143.617L25.5582 21.6288H21.8225V99.6558H0.82251V0.628784Z" fill="#081A3C"/>
    </symbol>

    <symbol id="chip-big" viewBox="0 0 741 216">
        <path d="M735.9 111.962C738.385 111.962 740.4 110.348 740.4 108.358C740.4 106.367 738.385 104.754 735.9 104.754C733.415 104.754 731.4 106.367 731.4 108.358C731.4 110.348 733.415 111.962 735.9 111.962Z" fill="#A2BDD4"/>
        <path d="M13.5 7.36117C15.9853 7.36117 18 5.74753 18 3.757C18 1.76648 15.9853 0.152832 13.5 0.152832C11.0147 0.152832 9 1.76648 9 3.757C9 5.74753 11.0147 7.36117 13.5 7.36117Z" fill="#A2BDD4"/>
        <path d="M558.5 24.1806C560.985 24.1806 563 22.567 563 20.5765C563 18.5859 560.985 16.9723 558.5 16.9723C556.015 16.9723 554 18.5859 554 20.5765C554 22.567 556.015 24.1806 558.5 24.1806Z" fill="#A2BDD4"/>
        <path d="M419.1 121.974H341.6L290.3 80.8861H108.9L15 5.67921L15.9 4.95837L109.4 79.925H290.8L342.1 121.012H418.6L435 107.877H735.9V108.838H435.5L419.1 121.974Z" fill="#A2BDD4"/>
        <path d="M383.2 167.786C380.4 167.786 378.1 165.944 378.1 163.702C378.1 161.459 380.4 159.617 383.2 159.617C386 159.617 388.3 161.459 388.3 163.702C388.3 165.944 386 167.786 383.2 167.786ZM383.2 160.578C381.1 160.578 379.3 161.94 379.3 163.702C379.3 165.384 381 166.825 383.2 166.825C385.3 166.825 387.1 165.464 387.1 163.702C387.1 161.94 385.3 160.578 383.2 160.578Z" fill="#A2BDD4"/>
        <path d="M13.5 180.601C15.9853 180.601 18 178.987 18 176.997C18 175.006 15.9853 173.393 13.5 173.393C11.0147 173.393 9 175.006 9 176.997C9 178.987 11.0147 180.601 13.5 180.601Z" fill="#A2BDD4"/>
        <path d="M13.9999 177.318L13.1 176.597L61.4 137.912H207.5L239.2 163.381H378.7V164.343H238.7L207 138.953H61.9L13.9999 177.318Z" fill="#A2BDD4"/>
        <path d="M287.4 134.468H501.2L595.4 58.9406L594.6 58.2198L500.7 133.427H287.9L235.7 91.6184H17.9V92.5795H235.2L287.4 134.468Z" fill="#D5E4EC"/>
        <path d="M282.2 140.715H504L595.4 67.4304L594.6 66.7897L503.5 139.754H282.7L229.7 97.2248H9.59998V98.1859H229.1L282.2 140.715Z" fill="#D5E4EC"/>
        <path d="M290.7 127.981H498.7L595.4 50.531L594.6 49.8102L498.2 127.019H291.2L199 53.1741L198.1 53.8949L290.7 127.981Z" fill="#D5E4EC"/>
        <path d="M63.7 181.002H211.9L241.6 157.214H595V156.253H241.1L211.4 180.04H63.7V181.002Z" fill="#D5E4EC"/>
        <path d="M595 149.685H134.4V150.678H595V149.685Z" fill="#D5E4EC"/>
        <path d="M124.8 150.166C124.8 147.924 127.1 146.081 129.9 146.081C132.7 146.081 135 147.924 135 150.166C135 152.409 132.7 154.251 129.9 154.251C127.1 154.251 124.8 152.409 124.8 150.166ZM126.1 150.166C126.1 151.848 127.8 153.29 130 153.29C132.1 153.29 133.9 151.928 133.9 150.166C133.9 148.484 132.2 147.043 130 147.043C127.8 147.043 126.1 148.404 126.1 150.166Z" fill="#D5E4EC"/>
        <path d="M0 97.9457C0 95.7031 2.30001 93.861 5.10001 93.861C7.90001 93.861 10.2 95.7031 10.2 97.9457C10.2 100.188 7.90001 102.03 5.10001 102.03C2.30001 102.03 0 100.188 0 97.9457ZM1.19998 97.9457C1.19998 99.6276 2.90001 101.069 5.10001 101.069C7.20001 101.069 9 99.7077 9 97.9457C9 96.2637 7.30001 94.8221 5.10001 94.8221C3.00001 94.8221 1.19998 96.2637 1.19998 97.9457Z" fill="#D5E4EC"/>
        <path d="M17.9 95.3826C20.3853 95.3826 22.4 93.769 22.4 91.7785C22.4 89.788 20.3853 88.1743 17.9 88.1743C15.4147 88.1743 13.4 89.788 13.4 91.7785C13.4 93.769 15.4147 95.3826 17.9 95.3826Z" fill="#D5E4EC"/>
        <path d="M63.7 184.125C66.1852 184.125 68.2 182.512 68.2 180.521C68.2 178.531 66.1852 176.917 63.7 176.917C61.2147 176.917 59.2 178.531 59.2 180.521C59.2 182.512 61.2147 184.125 63.7 184.125Z" fill="#D5E4EC"/>
        <path d="M198.5 57.4262C200.985 57.4262 203 55.8126 203 53.8221C203 51.8315 200.985 50.2179 198.5 50.2179C196.015 50.2179 194 51.8315 194 53.8221C194 55.8126 196.015 57.4262 198.5 57.4262Z" fill="#D5E4EC"/>
        <path d="M241.4 211.997H164.5V211.036H240.9L278.2 181.162H446.2V182.123H278.7L241.4 211.997Z" fill="#A2BDD4"/>
        <path d="M164.5 215.121C166.985 215.121 169 213.507 169 211.517C169 209.526 166.985 207.913 164.5 207.913C162.015 207.913 160 209.526 160 211.517C160 213.507 162.015 215.121 164.5 215.121Z" fill="#A2BDD4"/>
        <path d="M449.5 185.167C451.985 185.167 454 183.553 454 181.562C454 179.572 451.985 177.958 449.5 177.958C447.015 177.958 445 179.572 445 181.562C445 183.553 447.015 185.167 449.5 185.167Z" fill="#A2BDD4"/>
    </symbol>

    <symbol id="letter-m-big" viewBox="0 0 443 115" fill="none" xmlns="http://www.w3.org/2000/svg">
        <path fill-rule="evenodd" clip-rule="evenodd" d="M0.5 0.5H36.4196L209.52 55.2031H227.931L406.931 0.5H442.8V114.96H421.8V21.5H410.069L231.069 76.2031H206.28L33.1804 21.5H21.5V114.96H0.5V0.5Z" fill="#081A3C"/>
    </symbol>

</svg>

